#define bullet_width 9
#define bullet_height 9
static unsigned char bullet_bits[] = {
   0x00, 0x00, 0x00, 0x00, 0x00, 0x00, 0x80, 0x01, 0x80, 0x01, 0x00, 0x00,
   0x00, 0x00, 0x98, 0x01, 0x98, 0x01};
