#define max_width 9
#define max_height 9
static unsigned char max_bits[] = {
   0xf8, 0x01, 0x00, 0x01, 0x00, 0x01, 0x01, 0x01, 0x01, 0x01, 0x01, 0x01,
   0x01, 0x00, 0x01, 0x00, 0x3f, 0x00};
