#define shade_width 9
#define shade_height 9
static unsigned char shade_bits[] = {
   0x10, 0x00, 0x38, 0x00, 0x54, 0x00, 0x92, 0x00, 0x11, 0x01, 0x10, 0x00,
   0x10, 0x00, 0x10, 0x00, 0x10, 0x00};
